<svg id="Texting_Logo" data-name="Texting Logo" xmlns="http://www.w3.org/2000/svg" width="64.634" height="64.634" viewBox="0 0 64.634 64.634">
  <path id="Path_1408" data-name="Path 1408" d="M0,0H64.634V64.634H0Z" fill="none"/>
  <path id="Path_1409" data-name="Path 1409" d="M37.317,1.027,10.386,1A5.4,5.4,0,0,0,5,6.386V54.862a5.4,5.4,0,0,0,5.386,5.386H37.317A5.4,5.4,0,0,0,42.7,54.862V6.386A5.379,5.379,0,0,0,37.317,1.027Zm0,48.449H10.386v-37.7H37.317Z" transform="translate(8.465 1.693)" fill="rgba(0,0,0,0.6)"/>
  <path id="Path_1406" data-name="Path 1406" d="M0,0H23.29V23.29H0Z" transform="translate(20.287 24.562)" fill="none"/>
  <path id="Path_1407" data-name="Path 1407" d="M47.468,30H31.941a1.938,1.938,0,0,0-1.931,1.941L30,49.409l3.882-3.882H47.468a1.947,1.947,0,0,0,1.941-1.941V31.941A1.947,1.947,0,0,0,47.468,30ZM36.793,38.734H34.852V36.793h1.941Zm3.882,0H38.734V36.793h1.941Zm3.882,0H42.616V36.793h1.941Z" transform="translate(-7.772 -3.497)" fill="#4d148c"/>
</svg>
